<svg xmlns="http://www.w3.org/2000/svg" width="14" height="28" viewBox="0 0 14 28">
  <g id="fb.svg" transform="translate(-760 -2719)">
    <g id="fb.svg-2" data-name="fb.svg" transform="translate(760 2718.999)">
      <g id="Group_4" data-name="Group 4">
        <path id="Path_18" data-name="Path 18" d="M9.871,28H2.812V14.98H0V8.549H2.723C2.514,5.636,3.031,3.5,4.3,2.046A6.487,6.487,0,0,1,9.047,0H14V6.207H10.111A6.314,6.314,0,0,0,9.85,8.549h4.12v6.433h-4.1ZM4.365,26.487H8.317V13.467h4.1v-3.4H8.321L8.3,9.322c-.046-2.058,0-3.818,1.043-4.5l.2-.128h2.9V1.515H9.091a4.9,4.9,0,0,0-3.609,1.51C4.4,4.266,4.021,6.352,4.344,9.224l.1.84H1.553v3.406H4.365Z"/>
      </g>
    </g>
    <path id="Color_Overlay" data-name="Color Overlay" d="M762.811,2747v-13.02H760v-6.432h2.722c-.209-2.913.309-5.045,1.573-6.5a6.488,6.488,0,0,1,4.752-2.045H774v6.206h-3.889a6.311,6.311,0,0,0-.261,2.342h4.119v6.433h-4.1V2747Zm-1.258-14.532h2.812v13.019h3.953v-13.02h4.1v-3.4h-4.094l-.016-.741c-.046-2.058,0-3.818,1.042-4.5l.2-.128h2.9v-3.179h-3.354a4.895,4.895,0,0,0-3.609,1.509c-1.078,1.242-1.461,3.328-1.138,6.2l.1.839h-2.885Z" fill="#666"/>
  </g>
</svg>
