<svg xmlns="http://www.w3.org/2000/svg" width="23.001" height="23" viewBox="0 0 23.001 23">
  <g id="insta.svg" transform="translate(-707.999 -2722)">
    <g id="insta.svg-2" data-name="insta.svg" transform="translate(707.987 2722)">
      <path id="Path_12" data-name="Path 12" d="M17,1.5A4.505,4.505,0,0,1,21.5,6V17A4.5,4.5,0,0,1,17,21.5H6.01a4.5,4.5,0,0,1-4.5-4.5V6a4.5,4.5,0,0,1,4.5-4.5H17M17,0H6.01a6.014,6.014,0,0,0-6,6V17a6.016,6.016,0,0,0,6,6H17a6.017,6.017,0,0,0,6-6V6a6.016,6.016,0,0,0-6-6Z" fill="#231f20"/>
      <path id="Path_13" data-name="Path 13" d="M11.506,7.078a4.429,4.429,0,1,1-4.428,4.428,4.434,4.434,0,0,1,4.428-4.428m0-1.5a5.928,5.928,0,1,0,5.926,5.928,5.929,5.929,0,0,0-5.926-5.928Z" fill="#231f20"/>
      <circle id="Ellipse_1" data-name="Ellipse 1" cx="1.341" cy="1.341" r="1.341" transform="translate(16.305 4.038)" fill="#231f20"/>
    </g>
    <path id="Color_Overlay" data-name="Color Overlay" d="M714,2745a6.018,6.018,0,0,1-6-6v-11a6.017,6.017,0,0,1,6-6h11a6.019,6.019,0,0,1,6,6v11a6.019,6.019,0,0,1-6,6Zm-4.5-17v11a4.505,4.505,0,0,0,4.5,4.5h11a4.506,4.506,0,0,0,4.5-4.5v-11a4.507,4.507,0,0,0-4.5-4.5H714A4.505,4.505,0,0,0,709.5,2728Zm4.069,5.505a5.93,5.93,0,1,1,5.93,5.927A5.93,5.93,0,0,1,713.569,2733.505Zm1.5,0a4.431,4.431,0,1,0,4.43-4.428A4.436,4.436,0,0,0,715.069,2733.505Zm9.232-6.126a1.342,1.342,0,1,1,1.342,1.341A1.341,1.341,0,0,1,724.3,2727.379Z" fill="#666"/>
  </g>
</svg>
