<svg xmlns="http://www.w3.org/2000/svg" width="23" height="23.001" viewBox="0 0 23 23.001">
  <g id="insta.svg" transform="translate(-372 -4246)">
    <g id="insta.svg-2" data-name="insta.svg" transform="translate(371.987 4246)">
      <path id="Path_12" data-name="Path 12" d="M17,1.5A4.505,4.505,0,0,1,21.5,6V17A4.5,4.5,0,0,1,17,21.5H6.01a4.5,4.5,0,0,1-4.5-4.5V6a4.5,4.5,0,0,1,4.5-4.5H17M17,0H6.01a6.014,6.014,0,0,0-6,6V17a6.016,6.016,0,0,0,6,6H17a6.017,6.017,0,0,0,6-6V6a6.016,6.016,0,0,0-6-6Z" fill="#231f20"/>
      <path id="Path_13" data-name="Path 13" d="M11.506,7.078a4.429,4.429,0,1,1-4.428,4.428,4.434,4.434,0,0,1,4.428-4.428m0-1.5a5.928,5.928,0,1,0,5.926,5.928,5.929,5.929,0,0,0-5.926-5.928Z" fill="#231f20"/>
      <circle id="Ellipse_1" data-name="Ellipse 1" cx="1.341" cy="1.341" r="1.341" transform="translate(16.305 4.038)" fill="#231f20"/>
    </g>
    <path id="Color_Overlay" data-name="Color Overlay" d="M378,4269a6.018,6.018,0,0,1-6-6v-11a6.016,6.016,0,0,1,6-6h11a6.017,6.017,0,0,1,6,6v11a6.019,6.019,0,0,1-6,6Zm-4.5-17v11a4.506,4.506,0,0,0,4.5,4.5h11a4.505,4.505,0,0,0,4.5-4.5v-11a4.506,4.506,0,0,0-4.5-4.5H378A4.506,4.506,0,0,0,373.5,4252Zm4.069,5.5a5.93,5.93,0,1,1,5.93,5.928A5.93,5.93,0,0,1,377.569,4257.5Zm1.5,0a4.431,4.431,0,1,0,4.43-4.427A4.435,4.435,0,0,0,379.069,4257.5Zm9.233-6.125a1.342,1.342,0,1,1,1.341,1.34A1.341,1.341,0,0,1,388.3,4251.38Z" fill="#666"/>
  </g>
</svg>
