<svg xmlns="http://www.w3.org/2000/svg" width="55" height="60"><g data-name="gift.svg"><path data-name="Path 20" d="M51.9 12.179H45a7.792 7.792 0 00.449-8.113 7.637 7.637 0 00-4.567-3.74 7.557 7.557 0 00-5.846.612c-3.578 1.956-6.115 6.115-7.536 9.017-1.422-2.9-3.959-7.061-7.535-9.017a7.655 7.655 0 00-10.41 3.128 7.819 7.819 0 00.456 8.113h-6.9A3.123 3.123 0 000 15.314V24.7a3.123 3.123 0 003.106 3.133h.823v26.132A6.014 6.014 0 009.908 60h35.184a6.013 6.013 0 005.977-6.036V27.836h.831A3.121 3.121 0 0055 24.7v-9.386a3.123 3.123 0 00-3.1-3.135zM36.168 3.05a5.274 5.274 0 017.183 2.16 5.355 5.355 0 01.42 4.074 5.287 5.287 0 01-2.14 2.9H29.1c1.121-2.532 3.574-7.223 7.068-9.134zm-24.52 2.159a5.284 5.284 0 017.185-2.159c3.494 1.91 5.947 6.6 7.067 9.129H13.371a5.372 5.372 0 01-1.723-6.97zm14.663 22.627v13.681h-20V27.836zm-20 26.129V43.919h20V57.6H9.908a3.621 3.621 0 01-3.6-3.635zM45.092 57.6H28.69V43.919h20v10.046a3.62 3.62 0 01-3.598 3.635zm3.6-16.081h-20V27.836h20zM52.621 24.7a.729.729 0 01-.725.733H3.106a.73.73 0 01-.727-.733v-9.386a.739.739 0 01.727-.733H51.9a.738.738 0 01.725.733z"/></g><path data-name="Color Overlay" d="M9.907 60a6.014 6.014 0 01-5.979-6.035V27.836h-.823A3.122 3.122 0 010 24.7v-9.39a3.123 3.123 0 013.106-3.134h6.9a7.819 7.819 0 01-.456-8.114A7.656 7.656 0 0119.96.934c3.577 1.956 6.114 6.115 7.536 9.017 1.42-2.9 3.957-7.061 7.536-9.017a7.644 7.644 0 0110.409 3.128 7.789 7.789 0 01-.449 8.114h6.9a3.123 3.123 0 013.1 3.134v9.39a3.121 3.121 0 01-3.1 3.133h-.827v26.129a6.013 6.013 0 01-5.977 6.035zm18.783-2.4h16.4a3.62 3.62 0 003.6-3.633V43.921h-20zM6.308 53.967a3.62 3.62 0 003.6 3.633h16.4V43.921h-20zM28.69 41.52h20V27.838h-20zm-22.382 0h20V27.838h-20zm43.574-16.083H51.9a.728.728 0 00.724-.732v-9.39a.739.739 0 00-.724-.733H3.11a.74.74 0 00-.727.733v9.39a.73.73 0 00.727.732h46.77zM36.167 3.052c-3.493 1.911-5.947 6.6-7.067 9.13h12.531a5.286 5.286 0 002.14-2.9 5.353 5.353 0 00-.42-4.074 5.265 5.265 0 00-7.184-2.16zm-24.52 2.159a5.374 5.374 0 001.723 6.971H25.9c-1.12-2.528-3.574-7.219-7.068-9.13a5.233 5.233 0 00-2.514-.643 5.3 5.3 0 00-4.671 2.8z" fill="#fff"/></svg>