<svg xmlns="http://www.w3.org/2000/svg" width="30.001" height="16"><g data-name="vk.svg"><g data-name="Group 2"><path data-name="Path 16" d="M23.936 15.999a4 4 0 01-2.075-.642 9.849 9.849 0 01-1.784-1.558c-.438-.447-1.171-1.195-1.447-1.195-.268.076-.481.935-.476 1.593a1.731 1.731 0 01-.468 1.232 2.24 2.24 0 01-1.216.506l-1.926.007a11.238 11.238 0 01-7.428-3.067C3.443 9.469.282 2.93.149 2.654A1.386 1.386 0 01.3 1.149 2.021 2.021 0 011.66.663L5.742.639l.115.008a2.61 2.61 0 01.957.352 1.859 1.859 0 01.626.741 22.736 22.736 0 001.475 2.727c1.312 2.02 1.9 2.493 2.1 2.6a8.459 8.459 0 00.185-2.913 2.746 2.746 0 00-.252-1.3 1.325 1.325 0 00-.778-.3l-.722-.7c-.1-.668.635-1.245 1.149-1.468a8.424 8.424 0 013.152-.387l.71.005a9.011 9.011 0 012.149.195c1.7.367 1.64 1.755 1.567 3.363-.021.471-.046 1.016-.046 1.646 0 .153 0 .317-.011.486a4.069 4.069 0 00.093 1.324 9.384 9.384 0 002.071-2.519A20.563 20.563 0 0021.8 1.651a1.586 1.586 0 011.613-.962l4.274-.024a3.57 3.57 0 01.376-.016c.98 0 1.6.291 1.832.867.269.66.169 1.682-2.354 4.675-.37.439-.7.816-.982 1.144a7.438 7.438 0 00-1.237 1.619 6.772 6.772 0 001.252 1.163 14.464 14.464 0 013.033 3.12 1.636 1.636 0 01.258 1.7 2.276 2.276 0 01-1.877 1l-3.79.048a2.487 2.487 0 01-.262.014zm-5.307-4.914c.9 0 1.682.8 2.511 1.643a8.84 8.84 0 001.5 1.327 2.464 2.464 0 001.4.418l.1-.009 3.8-.048a1.666 1.666 0 00.536-.138 1.19 1.19 0 00-.1-.17 13.184 13.184 0 00-2.686-2.76c-1.184-.978-1.8-1.487-1.865-2.278-.066-.817.493-1.461 1.607-2.744.28-.323.6-.7.967-1.126a10.731 10.731 0 002.058-3 5.217 5.217 0 00-.678-.018l-4.361.028a.53.53 0 00-.249.037 20.839 20.839 0 01-1.644 3.1c-1.895 2.863-2.785 3.249-3.407 3.25a1.128 1.128 0 01-.569-.15c-1-.578-.963-1.862-.934-2.8 0-.151.01-.3.01-.438 0-.656.025-1.225.048-1.715.076-1.706.016-1.718-.379-1.8a7.621 7.621 0 00-1.856-.161l-.693-.005a13.751 13.751 0 00-1.906.1 1.87 1.87 0 01.259.255 3.892 3.892 0 01.602 2.216c.13 1.671.061 3.854-1.018 4.379a1.348 1.348 0 01-.6.139c-.926 0-1.854-.9-3.425-3.317a23.331 23.331 0 01-1.58-2.926A.475.475 0 006 2.278a1.122 1.122 0 00-.32-.118l-4 .024c-.021 0-.045 0-.07.005.59 1.21 3.428 6.694 6.52 9.564a9.858 9.858 0 006.416 2.669h1.851a1.113 1.113 0 00.269-.1c-.019.018-.01-.054-.01-.1 0-.269.012-2.635 1.578-3.08a1.5 1.5 0 01.395-.056z"/></g></g><path data-name="Color Overlay" d="M21.861 15.358a9.817 9.817 0 01-1.783-1.555c-.439-.447-1.171-1.194-1.448-1.194-.267.076-.481.935-.474 1.593a1.737 1.737 0 01-.469 1.231 2.244 2.244 0 01-1.216.506l-1.926.007a11.238 11.238 0 01-7.428-3.068C3.443 9.469.283 2.93.15 2.654a1.386 1.386 0 01.151-1.5A2.024 2.024 0 011.66.667L5.743.643l.113.008a2.635 2.635 0 01.958.353 1.858 1.858 0 01.625.742 22.818 22.818 0 001.476 2.725c1.311 2.021 1.895 2.493 2.1 2.6a8.471 8.471 0 00.187-2.915 2.764 2.764 0 00-.253-1.3 1.327 1.327 0 00-.777-.3l-.723-.7c-.1-.668.635-1.246 1.148-1.469A8.449 8.449 0 0113.744 0l.71.005a9.039 9.039 0 012.149.192c1.7.366 1.64 1.757 1.567 3.363-.021.471-.046 1.017-.046 1.646 0 .153-.005.316-.012.487a4.059 4.059 0 00.094 1.323 9.4 9.4 0 002.071-2.521 20.42 20.42 0 001.517-2.845 1.586 1.586 0 011.613-.96l4.274-.024a3.458 3.458 0 01.377-.016c.979 0 1.6.291 1.831.867.27.66.169 1.683-2.354 4.675-.369.439-.7.815-.982 1.144a7.45 7.45 0 00-1.237 1.62 6.79 6.79 0 001.251 1.163 14.461 14.461 0 013.033 3.12 1.633 1.633 0 01.258 1.7 2.274 2.274 0 01-1.877 1l-3.789.047a2.379 2.379 0 01-.263.013 4 4 0 01-2.068-.641zm-.72-2.63a8.836 8.836 0 001.5 1.329 2.461 2.461 0 001.4.417l.1-.01 3.805-.047a1.662 1.662 0 00.536-.138 1.385 1.385 0 00-.1-.17 13.168 13.168 0 00-2.686-2.759c-1.184-.978-1.8-1.487-1.865-2.278-.066-.817.492-1.461 1.607-2.745.279-.322.6-.694.967-1.126a10.739 10.739 0 002.058-3 5.287 5.287 0 00-.679-.019l-4.361.029a.535.535 0 00-.248.037 20.8 20.8 0 01-1.644 3.1c-1.895 2.863-2.785 3.249-3.407 3.25a1.122 1.122 0 01-.568-.151c-1-.577-.963-1.861-.934-2.8.005-.152.01-.3.01-.438 0-.656.026-1.227.049-1.715.075-1.706.015-1.718-.38-1.8a7.577 7.577 0 00-1.856-.161l-.691-.005a13.64 13.64 0 00-1.906.1 1.844 1.844 0 01.259.255 3.888 3.888 0 01.6 2.227c.131 1.671.061 3.854-1.018 4.378a1.339 1.339 0 01-.6.14c-.926 0-1.854-.9-3.424-3.317A23.656 23.656 0 016.078 2.38a.44.44 0 00-.075-.1 1.106 1.106 0 00-.32-.119l-4 .025h-.071c.592 1.208 3.425 6.693 6.519 9.563a9.854 9.854 0 006.417 2.669h1.85a1.171 1.171 0 00.267-.1c-.015.007-.006-.059-.006-.1 0-.27.012-2.634 1.578-3.081a1.506 1.506 0 01.395-.052c.897.001 1.679.8 2.509 1.643z" fill="#666"/></svg>