<svg xmlns="http://www.w3.org/2000/svg" width="14" height="28"><g data-name="fb.svg"><g data-name="Group 4"><path data-name="Path 18" d="M9.871 27.999H2.812v-13.02H0V8.548h2.723c-.209-2.913.308-5.049 1.577-6.503A6.487 6.487 0 019.047-.001H14v6.207h-3.889a6.314 6.314 0 00-.261 2.342h4.12v6.433h-4.1zm-5.506-1.513h3.952v-13.02h4.1v-3.4H8.321L8.3 9.321c-.046-2.058 0-3.818 1.043-4.5l.2-.128h2.9V1.514H9.091a4.9 4.9 0 00-3.609 1.51C4.4 4.265 4.021 6.351 4.344 9.223l.1.84H1.553v3.406h2.812z" fill="#68b738"/></g></g><path data-name="Color Overlay" d="M2.812 28V14.979H0V8.548h2.723c-.209-2.914.309-5.045 1.572-6.5A6.491 6.491 0 019.048.003H14v6.206h-3.889a6.3 6.3 0 00-.26 2.342h4.119v6.432h-4.1V28zM1.554 13.468h2.812v13.018h3.953V13.465h4.1v-3.4H8.324l-.016-.74c-.046-2.058 0-3.818 1.042-4.5l.2-.128h2.9V1.519H9.096a4.886 4.886 0 00-3.609 1.509c-1.078 1.242-1.461 3.328-1.138 6.2l.1.839H1.564z" fill="#68b738"/></svg>