<svg xmlns="http://www.w3.org/2000/svg" width="14" height="28" viewBox="0 0 14 28">
  <g id="fb.svg" transform="translate(-424 -4243)">
    <g id="fb.svg-2" data-name="fb.svg" transform="translate(424 4242.999)">
      <g id="Group_4" data-name="Group 4">
        <path id="Path_18" data-name="Path 18" d="M9.871,28H2.812V14.98H0V8.549H2.723C2.514,5.636,3.031,3.5,4.3,2.046A6.487,6.487,0,0,1,9.047,0H14V6.207H10.111A6.314,6.314,0,0,0,9.85,8.549h4.12v6.433h-4.1ZM4.365,26.487H8.317V13.467h4.1v-3.4H8.321L8.3,9.322c-.046-2.058,0-3.818,1.043-4.5l.2-.128h2.9V1.515H9.091a4.9,4.9,0,0,0-3.609,1.51C4.4,4.266,4.021,6.352,4.344,9.224l.1.84H1.553v3.406H4.365Z"/>
      </g>
    </g>
    <path id="Color_Overlay" data-name="Color Overlay" d="M426.812,4271v-13.021H424v-6.431h2.723c-.209-2.914.309-5.045,1.572-6.5a6.491,6.491,0,0,1,4.753-2.045H438v6.206h-3.889a6.3,6.3,0,0,0-.26,2.342h4.119v6.432h-4.1V4271Zm-1.258-14.532h2.812v13.018h3.953v-13.021h4.1v-3.4h-4.095l-.016-.74c-.046-2.058,0-3.818,1.042-4.5l.2-.128h2.9v-3.178h-3.354a4.886,4.886,0,0,0-3.609,1.509c-1.078,1.242-1.461,3.328-1.138,6.2l.1.839h-2.885Z" fill="#666"/>
  </g>
</svg>
