<svg xmlns="http://www.w3.org/2000/svg" width="30.001" height="16" viewBox="0 0 30.001 16">
  <g id="vk.svg" transform="translate(-314 -4249)">
    <g id="vk.svg-2" data-name="vk.svg" transform="translate(314 4248.999)">
      <g id="Group_2" data-name="Group 2">
        <path id="Path_16" data-name="Path 16" d="M23.936,16a4,4,0,0,1-2.075-.642A9.849,9.849,0,0,1,20.077,13.8c-.438-.447-1.171-1.195-1.447-1.195-.268.076-.481.935-.476,1.593a1.731,1.731,0,0,1-.468,1.232,2.24,2.24,0,0,1-1.216.506l-1.926.007a11.238,11.238,0,0,1-7.428-3.067C3.443,9.47.282,2.931.149,2.655A1.386,1.386,0,0,1,.3,1.15,2.021,2.021,0,0,1,1.66.664L5.742.64l.115.008A2.61,2.61,0,0,1,6.814,1a1.859,1.859,0,0,1,.626.741A22.736,22.736,0,0,0,8.915,4.468c1.312,2.02,1.9,2.493,2.1,2.6A8.459,8.459,0,0,0,11.2,4.155a2.746,2.746,0,0,0-.252-1.3,1.325,1.325,0,0,0-.778-.3l-.722-.7c-.1-.668.635-1.245,1.149-1.468A8.424,8.424,0,0,1,13.749,0l.71.005A9.011,9.011,0,0,1,16.608.2c1.7.367,1.64,1.755,1.567,3.363-.021.471-.046,1.016-.046,1.646,0,.153,0,.317-.011.486a4.069,4.069,0,0,0,.093,1.324A9.384,9.384,0,0,0,20.282,4.5,20.563,20.563,0,0,0,21.8,1.652h0A1.586,1.586,0,0,1,23.413.69L27.687.666A3.57,3.57,0,0,1,28.063.65c.98,0,1.6.291,1.832.867.269.66.169,1.682-2.354,4.675-.37.439-.7.816-.982,1.144a7.438,7.438,0,0,0-1.237,1.619,6.772,6.772,0,0,0,1.252,1.163,14.464,14.464,0,0,1,3.033,3.12,1.636,1.636,0,0,1,.258,1.7,2.276,2.276,0,0,1-1.877,1l-3.79.048A2.487,2.487,0,0,1,23.936,16Zm-5.307-4.914c.9,0,1.682.8,2.511,1.643a8.84,8.84,0,0,0,1.5,1.327,2.464,2.464,0,0,0,1.4.418l.1-.009,3.8-.048a1.666,1.666,0,0,0,.536-.138,1.19,1.19,0,0,0-.1-.17,13.184,13.184,0,0,0-2.686-2.76c-1.184-.978-1.8-1.487-1.865-2.278-.066-.817.493-1.461,1.607-2.744.28-.323.6-.7.967-1.126a10.731,10.731,0,0,0,2.058-3,5.217,5.217,0,0,0-.678-.018l-4.361.028a.53.53,0,0,0-.249.037,20.839,20.839,0,0,1-1.644,3.1c-1.895,2.863-2.785,3.249-3.407,3.25a1.128,1.128,0,0,1-.569-.15c-1-.578-.963-1.862-.934-2.8,0-.151.01-.3.01-.438,0-.656.025-1.225.048-1.715.076-1.706.016-1.718-.379-1.8a7.621,7.621,0,0,0-1.856-.161l-.693-.005a13.751,13.751,0,0,0-1.906.1,1.87,1.87,0,0,1,.259.255A3.892,3.892,0,0,1,12.7,4.1c.13,1.671.061,3.854-1.018,4.379a1.348,1.348,0,0,1-.6.139c-.926,0-1.854-.9-3.425-3.317A23.331,23.331,0,0,1,6.077,2.375.475.475,0,0,0,6,2.279a1.122,1.122,0,0,0-.32-.118l-4,.024c-.021,0-.045,0-.07.005C2.2,3.4,5.038,8.884,8.13,11.754a9.858,9.858,0,0,0,6.416,2.669l1.851,0a1.113,1.113,0,0,0,.269-.1c-.019.018-.01-.054-.01-.1,0-.269.012-2.635,1.578-3.08A1.5,1.5,0,0,1,18.629,11.087Z"/>
      </g>
    </g>
    <path id="Color_Overlay" data-name="Color Overlay" d="M335.861,4264.358a9.817,9.817,0,0,1-1.783-1.555c-.439-.447-1.171-1.194-1.448-1.194-.267.076-.481.935-.474,1.593a1.737,1.737,0,0,1-.469,1.231,2.244,2.244,0,0,1-1.216.506l-1.926.007a11.238,11.238,0,0,1-7.428-3.068c-3.674-3.409-6.834-9.948-6.967-10.224a1.386,1.386,0,0,1,.151-1.5,2.024,2.024,0,0,1,1.359-.487l4.083-.024.113.008a2.635,2.635,0,0,1,.958.353,1.858,1.858,0,0,1,.625.742,22.818,22.818,0,0,0,1.476,2.725c1.311,2.021,1.895,2.493,2.1,2.6a8.471,8.471,0,0,0,.187-2.915,2.764,2.764,0,0,0-.253-1.3,1.327,1.327,0,0,0-.777-.3l-.723-.7c-.1-.668.635-1.246,1.148-1.469a8.449,8.449,0,0,1,3.147-.387l.71.005a9.039,9.039,0,0,1,2.149.192c1.7.366,1.64,1.757,1.567,3.363-.021.471-.046,1.017-.046,1.646,0,.153-.005.316-.012.487a4.059,4.059,0,0,0,.094,1.323,9.4,9.4,0,0,0,2.071-2.521,20.42,20.42,0,0,0,1.517-2.845h0a1.586,1.586,0,0,1,1.613-.96l4.274-.024a3.458,3.458,0,0,1,.377-.016c.979,0,1.6.291,1.831.867.27.66.169,1.683-2.354,4.675-.369.439-.7.815-.982,1.144a7.45,7.45,0,0,0-1.237,1.62,6.79,6.79,0,0,0,1.251,1.163,14.461,14.461,0,0,1,3.033,3.12,1.633,1.633,0,0,1,.258,1.7,2.274,2.274,0,0,1-1.877,1l-3.789.047a2.379,2.379,0,0,1-.263.013A4,4,0,0,1,335.861,4264.358Zm-.72-2.63a8.836,8.836,0,0,0,1.5,1.329,2.461,2.461,0,0,0,1.4.417l.1-.01,3.805-.047a1.662,1.662,0,0,0,.536-.138,1.385,1.385,0,0,0-.1-.17,13.168,13.168,0,0,0-2.686-2.759c-1.184-.978-1.8-1.487-1.865-2.278-.066-.817.492-1.461,1.607-2.745.279-.322.6-.694.967-1.126a10.739,10.739,0,0,0,2.058-3,5.287,5.287,0,0,0-.679-.019l-4.361.029a.535.535,0,0,0-.248.037,20.8,20.8,0,0,1-1.644,3.1c-1.895,2.863-2.785,3.249-3.407,3.25a1.122,1.122,0,0,1-.568-.151c-1-.577-.963-1.861-.934-2.8.005-.152.01-.3.01-.438,0-.656.026-1.227.049-1.715.075-1.706.015-1.718-.38-1.8a7.577,7.577,0,0,0-1.856-.161l-.691-.005a13.64,13.64,0,0,0-1.906.1,1.844,1.844,0,0,1,.259.255,3.888,3.888,0,0,1,.6,2.227c.131,1.671.061,3.854-1.018,4.378a1.339,1.339,0,0,1-.6.14c-.926,0-1.854-.9-3.424-3.317a23.656,23.656,0,0,1-1.587-2.931.44.44,0,0,0-.075-.1,1.106,1.106,0,0,0-.32-.119l-4,.025-.071,0c.592,1.208,3.425,6.693,6.519,9.563a9.854,9.854,0,0,0,6.417,2.669l1.85,0a1.171,1.171,0,0,0,.267-.1c-.015.007-.006-.059-.006-.1,0-.27.012-2.634,1.578-3.081a1.506,1.506,0,0,1,.395-.052C333.529,4260.086,334.311,4260.885,335.141,4261.728Z" fill="#666"/>
  </g>
</svg>
