<svg xmlns="http://www.w3.org/2000/svg" xmlns:xlink="http://www.w3.org/1999/xlink" width="67" height="28" viewBox="0 0 67 28">
  <defs>
    <clipPath id="clip-path">
      <rect id="crop" width="67" height="28" transform="translate(0 17.695)" fill="none"/>
    </clipPath>
  </defs>
  <g id="Vector_Smart_Object_copy_2" data-name="Vector Smart Object copy 2" transform="translate(0 -17.695)" clip-path="url(#clip-path)">
    <g id="Group_7" data-name="Group 7">
      <path id="Path_22" data-name="Path 22" d="M63.648,20.6a8.106,8.106,0,0,1,2.425-2.315c.53-.333.868-.332,1.15.276a4.135,4.135,0,0,1,.482,3.015,1.077,1.077,0,0,0,.224,1.044c.3.377.563.776.839,1.169a3.08,3.08,0,0,1,.493,3.1,2.57,2.57,0,0,0-.108,1.533,3.956,3.956,0,0,1,0,1.48,1.812,1.812,0,0,1-1.442,1.587A3.109,3.109,0,0,0,66,32.478a.7.7,0,0,1-.456.269c-.63.08-2.23-1.26-2.229-1.866,0-.1.006-.2.008-.3.035-1.791-.078-1.965-1.82-2.682a2.4,2.4,0,0,1-.966-.619.952.952,0,0,0-1.206-.2.878.878,0,0,0-.68.963,30.338,30.338,0,0,1,.187,3.632.74.74,0,0,0,.124.421c1.653,2.246,2.275,4.888,3.1,7.431A4.052,4.052,0,0,0,66,42.669a9.569,9.569,0,0,1,1.009.156,2.188,2.188,0,0,1,1.8,1.578c.349,1.052.175,1.276-.985,1.283s-2.311-.006-3.466.009a1.622,1.622,0,0,1-1.215-.406,5.95,5.95,0,0,0-1.834-.993,3.862,3.862,0,0,1-1.792-1.29,15.022,15.022,0,0,0-2.148-2.262c-1.509-1.448-3.071-2.846-4.5-4.371a5.412,5.412,0,0,1-1.687-3.808c0-.469-.125-.664-.634-.428a1.364,1.364,0,0,1-.526.149,2.893,2.893,0,0,0-2.77,2.09c-.467,1.072-1.134,2.065-1.7,3.1a4.58,4.58,0,0,0-.617,2.205c0,1.176.295,1.6,1.47,1.995a2.978,2.978,0,0,1,1.828,1.192c.45.779.318,1.02-.607,1.028-1.208.011-2.416-.006-3.623.009A1.027,1.027,0,0,1,43,43.356c-.3-.523-.655-1.015-.985-1.521a2.813,2.813,0,0,1-.4-2.685,5.218,5.218,0,0,0,.043-2.653,4.01,4.01,0,0,1,.921-3.483c.295-.332.333-.515-.211-.611a26.531,26.531,0,0,1-6.312-2.039c-.024-.011-.048-.021-.072-.03-1.7-.618-2.032-.479-2.511,1.141-.416,1.406-.849,2.811-1.173,4.237a8.1,8.1,0,0,0,.6,4.587c.208.578.832.553,1.311.686a3.3,3.3,0,0,1,2.408,1.731c.356.795.309.9-.582.909-.919.007-1.841-.043-2.756.015a3.557,3.557,0,0,1-2.23-.707c-2.567-1.618-3.3-4.033-3.5-6.722a6.936,6.936,0,0,0-2.193-4.181.514.514,0,0,0-.74-.14,19.893,19.893,0,0,1-3.6,1.477,14.283,14.283,0,0,0-6.51,4.391,5.376,5.376,0,0,0-1.19,2.557c-.142.9.125,1.279,1.046,1.535a1.779,1.779,0,0,1,1.539,1.72c.049.411-.109.622-.546.622q-2.166,0-4.332-.008a.925.925,0,0,1-.715-.4,4.271,4.271,0,0,1-1.041-2.747,24.072,24.072,0,0,1,.494-5.167,3.058,3.058,0,0,1,1.79-2.392c3.154-1.4,4.8-4.033,6.29-6.8.3-.559.034-.644-.479-.6a8.707,8.707,0,0,0-4.1,1.595A41.36,41.36,0,0,0,8.8,31.214a9.074,9.074,0,0,1-5.5,2.468c-3.683.244-5.533-1.763-5.35-5.1a4.646,4.646,0,0,1,1.3-3.047,2.309,2.309,0,0,1,2.395-.755c.815.223,1.025.61.689,1.33-.137.292-.348.552-.511.835a6.964,6.964,0,0,0-.531.99c-.561,1.49.2,2.552,1.866,2.686A6.583,6.583,0,0,0,7.7,29.075,24.947,24.947,0,0,0,12,24.949,11.358,11.358,0,0,1,19.692,20.9a25.893,25.893,0,0,0,3.464-.967,24.108,24.108,0,0,1,6.756-.883,7.949,7.949,0,0,0,3.123-.536,14.523,14.523,0,0,1,8.052-.479c2.135.405,4.245.91,6.363,1.383a9.076,9.076,0,0,0,3.735-.08,38.9,38.9,0,0,1,7.151-.98,10.975,10.975,0,0,1,4.6.849C63.954,19.653,63.955,19.651,63.648,20.6Z"/>
    </g>
  </g>
</svg>
