<svg xmlns="http://www.w3.org/2000/svg" xmlns:xlink="http://www.w3.org/1999/xlink" width="35" height="49" viewBox="0 0 35 49">
  <defs>
    <clipPath id="clip-path">
      <rect id="crop" width="35" height="49" transform="translate(2.896 -49)" fill="none"/>
    </clipPath>
  </defs>
  <g id="Vector_Smart_Object" data-name="Vector Smart Object" transform="matrix(-1, 0, 0, -1, 37.896, 0)" clip-path="url(#clip-path)">
    <g id="Group_6" data-name="Group 6">
      <path id="Path_20" data-name="Path 20" d="M10.473,4.932h.19a2.054,2.054,0,0,0,.719-.97,10.882,10.882,0,0,0,.658-2.095.9.9,0,0,1,.74-.815A3.8,3.8,0,0,0,15.4-1.224a17.965,17.965,0,0,0,.922-2.4c.714-2.24,1.259-4.55,1.925-6.81.318-1.079.331-1.065,1.284-1.076,1.133-.013,1.053.214,1.07-1.305.006-.482-.12-.725-.54-.7-.13.008-.326.08-.375-.131-.041-.175.12-.3.216-.42a4.375,4.375,0,0,1,2.169-1.48c.949-.31,1.916-.553,2.846-.933a14.148,14.148,0,0,0,6.277-4.607,17.9,17.9,0,0,0,2.369-4.769,76.986,76.986,0,0,0,3.419-16.362c.324-2.619.553-5.252.729-7.891.088-1.318.2-2.637.187-3.963H21.232a1.494,1.494,0,0,0,.116.779,2.648,2.648,0,0,0,1.913,1.869c.347.1.391.224.176.556a6.814,6.814,0,0,0-.8,1.889,64.114,64.114,0,0,0-1.526,9,21.183,21.183,0,0,1-1.739,6.586,12.8,12.8,0,0,1-2.8,3.876c-.415.384-.429.384-.5-.267-.048-.436-.06-.878-.082-1.318a68.418,68.418,0,0,1,.086-8.62,45.562,45.562,0,0,0,.077-6.718,54.719,54.719,0,0,0-1.117-7.634H8.379a3.1,3.1,0,0,0,2.12,2.7,3.716,3.716,0,0,0,1.884-.123c.3-.083.424-.018.449.395a41.759,41.759,0,0,1-.481,9.623c-.628,3.665-1.219,7.337-1.533,11.061A12.479,12.479,0,0,1,9.682-26.14c-.6,1.289-1.117,2.63-1.7,3.927a4.26,4.26,0,0,0-.207,3.157c.136.43.265.865.431,1.279.478,1.191.985,2.365,1.457,3.56.244.618.194.684-.355.7-.815.021-.816.021-.829,1,0,.134,0,.269,0,.4-.007.419.128.65.507.616.253-.023.507,0,.761-.006.346-.008.446.175.361.581a3.4,3.4,0,0,1-2.568,2.7A9.2,9.2,0,0,1,4.232-8.49c-.324-.07-.5.016-.626.389-.2.606-.423,1.2-.644,1.8a.724.724,0,0,0,.046.7A19.038,19.038,0,0,0,8.694.66a.906.906,0,0,1,.444.685,13.565,13.565,0,0,0,.634,2.529A2.1,2.1,0,0,0,10.473,4.932Z"/>
    </g>
  </g>
</svg>
