<svg xmlns="http://www.w3.org/2000/svg" width="268" height="112"><defs><clipPath id="a"><path transform="translate(0 .086)" fill="none" d="M0 0h268v112H0z"/></clipPath></defs><g data-name="cat-pro.svg 200%"><g data-name="cat-pro.svg 200%" transform="translate(0 -.086)" clip-path="url(#a)"><g data-name="Group 8"><path data-name="Path 22" d="M246.2 11.609a30.414 30.414 0 019-9.207c2-1.4 3.2-1.4 4.4 1.2 1.6 3.8 3 7.806 1.8 12.009a4.584 4.584 0 00.8 4.2c1.2 1.6 2.2 3.2 3.2 4.6 2.6 3.8 3.6 7.806 1.8 12.41a10.871 10.871 0 00-.4 6.2 15.172 15.172 0 010 6c-.6 3.2-2.2 5.4-5.4 6.4a10.416 10.416 0 00-6.4 4 2.1 2.1 0 01-1.8 1c-2.4.4-8.4-5-8.4-7.406v-1.2c.2-7.206-.2-7.806-6.8-10.808a8.788 8.788 0 01-3.6-2.4c-1.2-1.6-2.8-1.4-4.6-.8-1.6.8-2.8 1.8-2.6 3.8a88.417 88.417 0 01.6 14.611 3.773 3.773 0 00.4 1.6c6.2 9.007 8.6 19.615 11.6 29.823 2.4 7.806 6.8 12.009 14.8 12.61a24.99 24.99 0 013.8.6c3.6.6 5.8 3 6.8 6.4 1.4 4.2.6 5.2-3.6 5.2h-13a6.485 6.485 0 01-4.6-1.6c-2-2-4.4-2.8-6.8-4-2.6-1.2-5.2-2.6-6.8-5.2-2.2-3.4-5.2-6.2-8-9.007-5.6-5.8-11.6-11.409-16.8-17.413-3.8-4.4-6.4-9.207-6.4-15.212 0-1.8-.4-2.6-2.4-1.8a3.857 3.857 0 01-2 .6c-5.6 0-8.4 3.4-10.4 8.406-1.8 4.2-4.2 8.206-6.4 12.41a20.806 20.806 0 00-2 8.406c0 4.8 1.2 6.4 5.6 8.006 2.8 1 5.4 2 6.8 4.8 1.6 3.2 1.2 4-2.2 4.2h-13.6a3.761 3.761 0 01-3.8-2.2l-3.6-6c-2-3.4-2.8-6.805-1.4-10.808 1.2-3.4.6-7.206.2-10.608-.8-5.2 0-9.808 3.4-14.011 1.2-1.4 1.2-2-.8-2.4a100.076 100.076 0 01-23.6-8.181.2.2 0 01-.2-.2c-6.4-2.4-7.6-2-9.4 4.6-1.6 5.6-3.2 11.209-4.4 17.013-1.4 6.4.2 12.41 2.2 18.414.8 2.4 3.2 2.2 5 2.8 4 1.2 7.4 2.8 9 7.005 1.4 3.2 1.2 3.6-2.2 3.6s-6.8-.2-10.4 0c-3.2.2-5.6-1-8.4-2.8-9.6-6.4-12.4-16.212-13.2-26.821-.4-6.605-4-11.809-8.2-16.813-.8-1-1.6-1.4-2.8-.6-4.2 2.6-9 4.2-13.4 6-9.6 3.6-18 9.207-24.4 17.614a21.277 21.277 0 00-4.4 10.219c-.6 3.6.4 5.2 4 6.2 3.8 1.2 5.4 3 5.8 6.805.2 1.6-.4 2.4-2 2.4H49.4a3.3 3.3 0 01-2.6-1.6A17.137 17.137 0 0143 93.672a101.355 101.355 0 011.8-20.616c.8-4.2 2.8-7.606 6.8-9.607 11.8-5.6 18-16.212 23.6-27.221 1.2-2.2.2-2.6-1.8-2.4-5.8.6-10.8 3.2-15.4 6.4a141.262 141.262 0 00-16.6 14.214c-5.8 5.4-12.4 9.207-20.6 9.808C6.2 65.05-.6 56.844 0 43.634a19.41 19.41 0 014.8-12.21c2.4-2.6 5.2-4 9-3 3 .8 3.8 2.4 2.6 5.4-.6 1.2-1.4 2.2-2 3.4a15.007 15.007 0 00-2 4c-2.2 6 .8 10.208 7 10.808 6.6.6 12-2.2 17-6.2a89.917 89.917 0 0016-16.613c7.4-9.607 17-14.611 28.8-16.212 4.6-.6 8.6-2.6 13-3.8a82.954 82.954 0 0125.4-3.6 26.052 26.052 0 0011.6-2.2c9.8-4 20-4 30.2-2 8 1.6 16 3.6 23.8 5.6a33.143 33.143 0 0014-.4c8.8-2 17.8-3.8 26.8-4A36.3 36.3 0 01243.2 6c4 1.806 4 1.806 3 5.609z"/></g></g><path data-name="Color Overlay" d="M246.006 112a6.4 6.4 0 01-2.006-1.2c-2-2-4.4-2.8-6.8-4-2.6-1.2-5.2-2.6-6.8-5.2-2.2-3.4-5.2-6.2-8-9.007-5.6-5.8-11.6-11.408-16.8-17.413-3.8-4.4-6.4-9.207-6.4-15.212 0-1.8-.4-2.6-2.4-1.8a3.865 3.865 0 01-2 .6c-5.6 0-8.4 3.4-10.4 8.406-1.8 4.2-4.2 8.206-6.4 12.41a20.8 20.8 0 00-2 8.406c0 4.8 1.2 6.405 5.6 8.006 2.8 1 5.4 2 6.8 4.8 1.6 3.2 1.2 4-2.2 4.2h-13.6a3.761 3.761 0 01-3.8-2.2l-3.6-6c-2-3.4-2.8-6.8-1.4-10.808 1.2-3.4.6-7.205.2-10.608-.8-5.2 0-9.807 3.4-14.01 1.2-1.4 1.2-2-.8-2.4a100.068 100.068 0 01-23.6-8.206.2.2 0 01-.2-.2c-6.4-2.4-7.6-2-9.4 4.6-1.6 5.6-3.2 11.209-4.4 17.013-1.4 6.405.2 12.409 2.2 18.414.8 2.4 3.2 2.2 5 2.8 4 1.2 7.4 2.8 9 7.006 1.4 3.2 1.2 3.6-2.2 3.6s-6.8-.2-10.4 0c-3.2.2-5.6-1-8.4-2.8-9.6-6.4-12.4-16.213-13.2-26.821-.4-6.605-4-11.809-8.2-16.813-.8-1-1.6-1.4-2.8-.6-4.2 2.6-9 4.2-13.4 6-9.6 3.6-18 9.207-24.4 17.614a21.276 21.276 0 00-4.4 10.208c-.6 3.6.4 5.2 4 6.2 3.8 1.2 5.4 3 5.8 6.8.2 1.6-.4 2.4-2 2.4H49.4a3.307 3.307 0 01-2.6-1.6A17.136 17.136 0 0143 93.576a101.318 101.318 0 011.8-20.615c.8-4.2 2.8-7.606 6.8-9.608 11.8-5.6 18-16.213 23.6-27.221 1.2-2.2.2-2.6-1.8-2.4-5.8.6-10.8 3.2-15.4 6.4a141.286 141.286 0 00-16.6 14.211c-5.8 5.4-12.4 9.207-20.6 9.807C7.383 64.886.553 58.015 0 46.643v-3.109a19.408 19.408 0 014.8-12.209c2.4-2.6 5.2-4 9-3 3 .8 3.8 2.4 2.6 5.4-.6 1.2-1.4 2.2-2 3.4a15 15 0 00-2 4c-2.2 6 .8 10.208 7 10.808 6.6.6 12-2.2 17-6.2a89.872 89.872 0 0016-16.613c7.4-9.607 17-14.611 28.8-16.212 4.6-.6 8.6-2.6 13-3.8a82.958 82.958 0 0125.4-3.6 26.058 26.058 0 0011.6-2.2c9.8-4 20-4 30.2-2 8 1.6 16 3.6 23.8 5.6a33.142 33.142 0 0014-.4c8.8-2 17.8-3.8 26.8-4a36.3 36.3 0 0117.2 3.4c4 1.8 4 1.8 3 5.6a30.394 30.394 0 019-9.207c2-1.4 3.2-1.4 4.4 1.2 1.6 3.8 3 7.806 1.8 12.01a4.585 4.585 0 00.8 4.2c1.2 1.6 2.2 3.2 3.2 4.6a14.724 14.724 0 012.6 6.225v3.187a13.213 13.213 0 01-.8 3 10.876 10.876 0 00-.4 6.205 15.151 15.151 0 010 6c-.6 3.2-2.2 5.4-5.4 6.405a10.419 10.419 0 00-6.4 4 2.1 2.1 0 01-1.8 1c-2.4.4-8.4-5-8.4-7.406v-1.2c.2-7.205-.2-7.806-6.8-10.808a8.8 8.8 0 01-3.6-2.4c-1.2-1.6-2.8-1.4-4.6-.8-1.6.8-2.8 1.8-2.6 3.8a88.4 88.4 0 01.6 14.611 3.763 3.763 0 00.4 1.6c6.2 9.006 8.6 19.615 11.6 29.823 2.4 7.807 6.8 12.01 14.8 12.61a25.028 25.028 0 013.8.6c3.6.6 5.8 3 6.8 6.405.941 2.825.887 4.2-.523 4.8z"/></g></svg>