<svg xmlns="http://www.w3.org/2000/svg" width="140" height="194"><defs><clipPath id="a"><path fill="none" d="M0 0h140v194H0z"/></clipPath></defs><g data-name="cat-slim.svg 200%"><g data-name="cat-slim.svg 200%"><g data-name="Group 6" clip-path="url(#a)"><path data-name="Path 20" d="M109.6 0h-.8a6.23 6.23 0 00-2.8 3.2 31.613 31.613 0 00-2.6 6.8 3.2 3.2 0 01-3 2.6A14.714 14.714 0 0090 20a67.788 67.788 0 00-3.6 7.8c-2.8 7.4-5 15-7.6 22.4-1.4 3.8-1.6 3.8-5.4 3.8-4.6 0-4.2-.8-4.2 4.2 0 1.6.4 2.4 2.2 2.4.6 0 1.4-.2 1.6.4s-.4 1-.8 1.4a16.848 16.848 0 01-8.6 4.8c-3.8 1-7.6 1.8-11.4 3C42.8 73.4 34 77.8 27 85.4c-4.2 4.6-7 10-9.4 15.6-7.6 17.4-11.2 35.6-14 54-1.2 8.6-2.2 17.2-3 26-.2 4.4-.6 8.6-.6 13h66.6a5.49 5.49 0 00-.4-2.6c-1.4-3.6-4.2-5.4-7.6-6.2-1.4-.4-1.6-.8-.8-1.8a22.776 22.776 0 003.2-6.2c3.2-9.6 4.6-19.6 6.2-29.6 1.2-7.6 3-14.8 6.8-21.6a45.754 45.754 0 0111.2-12.8c1.6-1.2 1.8-1.2 2 .8.2 1.4.2 2.8.4 4.4a168.383 168.383 0 01-.4 28.4 135.136 135.136 0 00-.4 22 179.537 179.537 0 004.4 25.2h26.6a10.647 10.647 0 00-8.4-8.8 19.52 19.52 0 00-7.6.4c-1.2.2-1.6 0-1.8-1.2a111.713 111.713 0 012-31.6c2.6-12 4.8-24.2 6.2-36.4a35.07 35.07 0 014.6-14c2.4-4.2 4.4-8.6 6.8-13a11.913 11.913 0 00.8-10.4 37.888 37.888 0 00-1.8-4.2c-2-4-4-7.8-5.8-11.8-1-2-.8-2.2 1.4-2.2 3.2 0 3.2 0 3.4-3.2v-1.4c0-1.4-.6-2.2-2-2h-3c-1.4 0-1.8-.6-1.4-2a12.508 12.508 0 0110.2-8.8c4.4-.6 8.8 0 13.2.8a2.081 2.081 0 002.6-1.2c.8-2 1.6-4 2.6-6a1.793 1.793 0 00-.2-2.2c-6.4-8.4-13.4-16-22.8-20.8a3.243 3.243 0 01-1.8-2.2 45.063 45.063 0 00-2.6-8.4 5.819 5.819 0 00-2.8-3.4z"/></g></g><path data-name="Color Overlay" d="M91.2 194a179.6 179.6 0 01-4.4-25.2 135.176 135.176 0 01.4-22 168.348 168.348 0 00.4-28.4c-.2-1.6-.2-3-.4-4.4-.2-2-.4-2-2-.8A45.761 45.761 0 0074 126c-3.8 6.8-5.6 14-6.8 21.6-1.6 10-3 20-6.2 29.6a22.774 22.774 0 01-3.2 6.2c-.8 1-.6 1.4.8 1.8 3.4.8 6.2 2.6 7.6 6.2a5.493 5.493 0 01.4 2.6H0c0-4.4.4-8.6.6-13 .8-8.8 1.8-17.4 3-26 2.8-18.4 6.4-36.6 14-54 2.4-5.6 5.2-11 9.4-15.6 7-7.6 15.8-12 25.2-15.2 3.8-1.2 7.6-2 11.4-3a16.847 16.847 0 008.6-4.8c.4-.4 1-.8.8-1.4s-1-.4-1.6-.4c-1.8 0-2.2-.8-2.2-2.4 0-5-.4-4.2 4.2-4.2 3.8 0 4 0 5.4-3.8 2.6-7.4 4.8-15 7.6-22.4A67.7 67.7 0 0190 20a14.716 14.716 0 0110.4-7.4 3.2 3.2 0 003-2.6 31.6 31.6 0 012.6-6.8 6.225 6.225 0 012.8-3.2h.8a5.818 5.818 0 012.8 3.4 45.1 45.1 0 012.6 8.4 3.244 3.244 0 001.8 2.2c9.4 4.8 16.4 12.4 22.8 20.8a1.61 1.61 0 01.4.637v1.048a2.8 2.8 0 01-.2.514c-1 2-1.8 4-2.6 6a2.08 2.08 0 01-2.6 1.2c-4.4-.8-8.8-1.4-13.2-.8a12.508 12.508 0 00-10.2 8.8c-.4 1.4 0 2 1.4 2h3c1.4-.2 2 .6 2 2v1.4c-.2 3.2-.2 3.2-3.4 3.2-2.2 0-2.4.2-1.4 2.2 1.8 4 3.8 7.8 5.8 11.8a37.938 37.938 0 011.8 4.2 11.914 11.914 0 01-.8 10.4c-2.4 4.4-4.4 8.8-6.8 13a35.075 35.075 0 00-4.6 14c-1.4 12.2-3.6 24.4-6.2 36.4a111.723 111.723 0 00-2 31.6c.2 1.2.6 1.4 1.8 1.2a19.522 19.522 0 017.6-.4 10.648 10.648 0 018.4 8.8z"/></g></svg>