<svg xmlns="http://www.w3.org/2000/svg" width="20.006" height="20.006"><g data-name="phone.svg"><path data-name="Path 24" d="M17.95 9.444H9.429v1.2h8.521l-2.105 2.113.9.9 3.108-3.113a.75.75 0 000-.9l-3.106-3.112-.9.9z"/><path data-name="Path 25" d="M8.125 19.484v-6.225a.647.647 0 00-.6-.6H3.113a1.22 1.22 0 001.2 1.2h2.509v5.02H3.113a1.8 1.8 0 01-1.9-1.707V3.119a1.78 1.78 0 011.7-1.807h3.91v5.02H4.416a1.22 1.22 0 00-1.2 1.2h4.408a.647.647 0 00.6-.6V.606a.86.86 0 00-.7-.6H3.113A3.015 3.015 0 00.005 2.918v13.956a2.9 2.9 0 002.907 3.112h4.612a.5.5 0 00.601-.502z"/></g><path data-name="Color Overlay" d="M7.524 19.986H2.912a2.9 2.9 0 01-2.907-3.112V2.917A3.015 3.015 0 013.113.006h4.411a.861.861 0 01.7.6v6.326a.647.647 0 01-.6.6H3.212a1.221 1.221 0 011.2-1.205h2.406V1.306h-3.91a1.78 1.78 0 00-1.7 1.807V17.17a1.8 1.8 0 001.9 1.706h3.709v-5.02H4.311a1.22 1.22 0 01-1.2-1.2h4.411a.647.647 0 01.6.6v6.225a.529.529 0 01-.482.521.373.373 0 01-.116-.016zm8.321-7.229l2.105-2.109H9.429v-1.2h8.521l-2.105-2.009.9-.9 3.108 3.113a.75.75 0 010 .9l-3.108 3.112z" fill="#222"/></svg>